<?xml version="1.0" encoding="UTF-8" standalone="no"?>
<!-- Created with Inkscape (http://www.inkscape.org/) -->

<svg
   xmlns:osb="http://www.openswatchbook.org/uri/2009/osb"
   xmlns:dc="http://purl.org/dc/elements/1.1/"
   xmlns:cc="http://creativecommons.org/ns#"
   xmlns:rdf="http://www.w3.org/1999/02/22-rdf-syntax-ns#"
   xmlns:svg="http://www.w3.org/2000/svg"
   xmlns="http://www.w3.org/2000/svg"
   xmlns:xlink="http://www.w3.org/1999/xlink"
   xmlns:sodipodi="http://sodipodi.sourceforge.net/DTD/sodipodi-0.dtd"
   xmlns:inkscape="http://www.inkscape.org/namespaces/inkscape"
   width="210mm"
   height="297mm"
   viewBox="0 0 210 297"
   version="1.1"
   id="svg2260"
   inkscape:version="0.92.4 (5da689c313, 2019-01-14)"
   sodipodi:docname="owl_hat.svg">
  <defs
     id="defs2254">
    <linearGradient
       id="color4"
       osb:paint="solid"
       gradientTransform="matrix(1.049512e-4,1.1028624e-4,-7.5389773e-5,2.5880136e-5,-710.96548,-180.27152)">
      <stop
         style="stop-color:#6441a5;stop-opacity:1;"
         offset="0"
         id="stop2071" />
    </linearGradient>
    <filter
       inkscape:collect="always"
       style="color-interpolation-filters:sRGB"
       id="filter2130"
       x="-0.056014158"
       width="1.1120282"
       y="-0.041992038"
       height="1.0839841">
      <feGaussianBlur
         inkscape:collect="always"
         stdDeviation="1.0949181"
         id="feGaussianBlur2132" />
    </filter>
    <linearGradient
       inkscape:collect="always"
       xlink:href="#color4"
       id="linearGradient1658"
       gradientUnits="userSpaceOnUse"
       gradientTransform="matrix(0.6940481,0,0,0.6940481,783.54962,-38.150797)"
       x1="207.14258"
       y1="326.9375"
       x2="447.14258"
       y2="326.9375" />
    <linearGradient
       inkscape:collect="always"
       xlink:href="#color3"
       id="linearGradient1660"
       gradientUnits="userSpaceOnUse"
       gradientTransform="matrix(0.6940481,0,0,0.6940481,207.31417,76.905935)"
       x1="65.66423"
       y1="91.01329"
       x2="107.29781"
       y2="91.01329" />
    <linearGradient
       id="color3"
       osb:paint="solid"
       gradientTransform="matrix(-8.120747e-4,0,0,-0.00337088,306.65643,176.71716)">
      <stop
         style="stop-color:#9bc53d;stop-opacity:1;"
         offset="0"
         id="stop889" />
    </linearGradient>
    <linearGradient
       inkscape:collect="always"
       xlink:href="#color5"
       id="linearGradient1666"
       gradientUnits="userSpaceOnUse"
       x1="61.856686"
       y1="88.304443"
       x2="111.96524"
       y2="88.304443" />
    <linearGradient
       id="color5"
       osb:paint="solid"
       gradientTransform="matrix(1.4579472e-5,0,0,1.3150586e-5,538.86268,1544.6922)">
      <stop
         style="stop-color:#fde74c;stop-opacity:1;"
         offset="0"
         id="stop900" />
    </linearGradient>
    <linearGradient
       inkscape:collect="always"
       xlink:href="#color2"
       id="linearGradient1668"
       gradientUnits="userSpaceOnUse"
       gradientTransform="matrix(0.6940481,0,0,0.6940481,184.91087,90.127555)"
       x1="116.31783"
       y1="60.806011"
       x2="122.39589"
       y2="60.806011" />
    <linearGradient
       id="color2"
       osb:paint="solid"
       gradientTransform="matrix(-2.2593664e-4,5.0356696e-4,-1.7567913e-4,-4.8195077e-4,5976.8846,3335.6173)">
      <stop
         style="stop-color:#e55934;stop-opacity:1;"
         offset="0"
         id="stop924" />
    </linearGradient>
    <filter
       inkscape:collect="always"
       style="color-interpolation-filters:sRGB"
       id="filter2588"
       x="-0.045486625"
       width="1.0909733"
       y="-0.050807372"
       height="1.1016147">
      <feGaussianBlur
         inkscape:collect="always"
         stdDeviation="1.3043596"
         id="feGaussianBlur2590" />
    </filter>
    <filter
       inkscape:collect="always"
       style="color-interpolation-filters:sRGB"
       id="filter1874"
       x="-0.037504222"
       width="1.0750084"
       y="-0.066653334"
       height="1.1333067">
      <feGaussianBlur
         inkscape:collect="always"
         stdDeviation="0.64332302"
         id="feGaussianBlur1876" />
    </filter>
    <filter
       inkscape:collect="always"
       style="color-interpolation-filters:sRGB"
       id="filter1821"
       x="-0.044457622"
       width="1.0889152"
       y="-0.052155767"
       height="1.1043115">
      <feGaussianBlur
         inkscape:collect="always"
         stdDeviation="0.6367567"
         id="feGaussianBlur1823" />
    </filter>
    <linearGradient
       inkscape:collect="always"
       xlink:href="#color5"
       id="linearGradient3055"
       gradientUnits="userSpaceOnUse"
       x1="61.856686"
       y1="88.304443"
       x2="111.96524"
       y2="88.304443" />
    <linearGradient
       inkscape:collect="always"
       xlink:href="#color5"
       id="linearGradient3057"
       gradientUnits="userSpaceOnUse"
       x1="-53.453133"
       y1="20.141781"
       x2="237.65297"
       y2="193.38165" />
  </defs>
  <sodipodi:namedview
     id="base"
     pagecolor="#ffffff"
     bordercolor="#666666"
     borderopacity="1.0"
     inkscape:pageopacity="0.0"
     inkscape:pageshadow="2"
     inkscape:zoom="1.979899"
     inkscape:cx="405.35171"
     inkscape:cy="605.46438"
     inkscape:document-units="mm"
     inkscape:current-layer="layer1"
     showgrid="false"
     inkscape:window-width="1920"
     inkscape:window-height="1001"
     inkscape:window-x="-9"
     inkscape:window-y="-9"
     inkscape:window-maximized="1" />
  <metadata
     id="metadata2257">
    <rdf:RDF>
      <cc:Work
         rdf:about="">
        <dc:format>image/svg+xml</dc:format>
        <dc:type
           rdf:resource="http://purl.org/dc/dcmitype/StillImage" />
        <dc:title></dc:title>
      </cc:Work>
    </rdf:RDF>
  </metadata>
  <g
     inkscape:label="Layer 1"
     inkscape:groupmode="layer"
     id="layer1">
    <g
       id="g3130"
       transform="translate(8.2853554,8.6862597)">
      <g
         transform="translate(-541.09238,-174.35705)"
         id="g2011">
        <g
           transform="rotate(6.6653148,-797.75744,1637.3995)"
           id="g1656">
          <g
             id="g1648">
            <g
               transform="matrix(1.0438907,0,0,1.0709049,-5.0043699,-65.264735)"
               style="opacity:0.2;fill:url(#color4);filter:url(#filter2130)"
               id="g1600">
              <g
                 style="fill:url(#color4)"
                 inkscape:export-ydpi="96"
                 inkscape:export-xdpi="96"
                 inkscape:export-filename="E:\svg\warm\owl.png"
                 id="g1596"
                 transform="translate(211.57186,62.883296)">
                <path
                   style="fill:url(#color4);fill-opacity:1;stroke-width:0.97499269"
                   d="m 932.01758,66.841797 a 222.36435,175.63873 56.300663 0 0 4.76953,39.685543 75.509004,35.494583 0 0 0 -0.36719,0.77149 80.807029,55.523837 0 0 1 -0.10547,-0.1875 83.285771,132.86064 0 0 0 -8.99804,59.74219 83.285771,132.86064 0 0 0 83.28519,132.86132 83.285771,132.86064 0 0 0 83.2871,-132.86132 83.285771,132.86064 0 0 0 -7.7754,-55.69336 75.509004,35.494583 0 0 0 -1.918,-5.92188 175.63869,222.36434 34.705505 0 0 5.0547,-37.357421 173.29891,91.379958 16.2828 0 1 -44.7832,13.710938 75.509004,35.494583 0 0 0 -33.7031,-3.787109 75.509004,35.494583 0 0 0 -33.28714,3.701171 91.379962,173.29896 74.723398 0 1 -45.45898,-14.664062 z"
                   id="path1558"
                   transform="matrix(0.26458333,0,0,0.26458333,0,87)"
                   inkscape:connector-curvature="0" />
                <ellipse
                   ry="24.803741"
                   rx="16.658188"
                   cy="139.87613"
                   cx="267.33615"
                   id="ellipse1560"
                   style="fill:url(#color4);stroke-width:0.28891483" />
                <ellipse
                   ry="25.82272"
                   rx="14.447855"
                   cy="140.07353"
                   cx="267.33615"
                   id="ellipse1562"
                   style="fill:url(#color4);fill-opacity:1;stroke-width:0.29046667" />
                <path
                   style="fill:url(#color4);stroke-width:0.69404805"
                   d="m 980.85742,90.3125 a 42.634382,44.617378 0 0 0 -42.63476,44.61719 42.634382,44.617378 0 0 0 42.63476,44.61719 42.634382,44.617378 0 0 0 29.86328,-12.79102 42.634382,44.617378 0 0 0 29.8242,12.79102 42.634382,44.617378 0 0 0 42.6348,-44.61719 42.634382,44.617378 0 0 0 -42.6348,-44.61719 42.634382,44.617378 0 0 0 -29.8633,12.79102 42.634382,44.617378 0 0 0 -29.82418,-12.79102 z"
                   id="path1564"
                   transform="matrix(0.26458333,0,0,0.26458333,0,87)"
                   inkscape:connector-curvature="0" />
                <g
                   transform="matrix(0.6940481,0,0,0.6940481,207.31417,76.905935)"
                   id="g1570"
                   style="fill:url(#color4);fill-opacity:1">
                  <ellipse
                     style="fill:url(#color4);fill-opacity:1;stroke-width:0.35544509"
                     id="ellipse1566"
                     cx="86.734314"
                     cy="94.59771"
                     rx="15.100729"
                     ry="30.004381" />
                  <path
                     style="fill:url(#color4);fill-opacity:1;stroke-width:0.30948818"
                     d="M 76.856805,52.006803 A 15,15 0 0 0 61.856687,67.006839 15,15 0 0 0 72.625538,81.388308 13.985118,24.757438 0 0 0 72.420382,85.445924 13.985118,24.757438 0 0 0 86.405577,110.2035 13.985118,24.757438 0 0 0 100.39024,85.445924 13.985118,24.757438 0 0 0 100.21402,81.631185 15,15 0 0 0 111.96524,67.006839 15,15 0 0 0 96.965138,52.006803 15,15 0 0 0 86.910455,55.898022 15,15 0 0 0 76.856805,52.006803 Z"
                     id="path1568"
                     inkscape:connector-curvature="0" />
                </g>
                <path
                   style="fill:url(#color4);stroke-width:0.18363355"
                   d="m 267.75579,118.66034 a 6.5583414,4.9843391 0 0 0 -6.55845,4.98428 6.5583414,4.9843391 0 0 0 0.37552,1.64553 6.5583414,4.9843391 0 0 1 -0.008,-0.17646 6.5583414,4.9843391 0 0 1 6.55845,-4.98428 6.5583414,4.9843391 0 0 1 6.18292,3.33875 6.5583414,4.9843391 0 0 0 -6.55019,-4.80782 z"
                   id="path1572"
                   inkscape:connector-curvature="0" />
                <path
                   style="fill:url(#color4);stroke-width:0.45917401"
                   d="m 978.18359,107.95703 a 28.854913,28.854913 0 0 0 -28.85547,28.85547 28.854913,28.854913 0 0 0 28.85547,28.85352 28.854913,28.854913 0 0 0 28.85351,-28.85352 28.854913,28.854913 0 0 0 -28.85351,-28.85547 z m 66.62891,0 a 28.854913,28.854913 0 0 0 -28.8555,28.85547 28.854913,28.854913 0 0 0 28.8555,28.85352 28.854913,28.854913 0 0 0 28.8535,-28.85352 28.854913,28.854913 0 0 0 -28.8535,-28.85547 z"
                   id="path1574"
                   transform="matrix(0.26458333,0,0,0.26458333,0,87)"
                   inkscape:connector-curvature="0" />
                <path
                   style="fill:url(#color4);stroke-width:0.63561517"
                   d="m 977.89453,112.30078 a 23.608565,23.608565 0 0 0 -23.60937,23.60938 23.608565,23.608565 0 0 0 23.60937,23.60742 23.608565,23.608565 0 0 0 23.60747,-23.60742 23.608565,23.608565 0 0 0 -23.60747,-23.60938 z m 66.62887,0 a 23.608565,23.608565 0 0 0 -23.6093,23.60938 23.608565,23.608565 0 0 0 23.6093,23.60742 23.608565,23.608565 0 0 0 23.6075,-23.60742 23.608565,23.608565 0 0 0 -23.6075,-23.60938 z"
                   transform="matrix(0.26458333,0,0,0.26458333,0,87)"
                   id="path1576"
                   inkscape:connector-curvature="0" />
                <path
                   style="fill:url(#color4);stroke-width:0.69404805"
                   d="m 977.75195,115.55469 a 20.331739,20.682285 0 0 0 -20.33007,20.68359 20.331739,20.682285 0 0 0 20.33007,20.68164 20.331739,20.682285 0 0 0 20.33203,-20.68164 20.331739,20.682285 0 0 0 -20.33203,-20.68359 z m 66.60545,0.70117 a 20.331739,20.682285 0 0 0 -20.332,20.68359 20.331739,20.682285 0 0 0 20.332,20.68164 20.331739,20.682285 0 0 0 20.3321,-20.68164 20.331739,20.682285 0 0 0 -20.3321,-20.68359 z"
                   transform="matrix(0.26458333,0,0,0.26458333,0,87)"
                   id="path1578"
                   inkscape:connector-curvature="0" />
                <circle
                   r="3.7099581"
                   cy="123.14648"
                   cx="259.07181"
                   id="circle1580"
                   style="fill:url(#color4);stroke-width:0.18363355" />
                <ellipse
                   ry="0.8665669"
                   rx="0.86094075"
                   cy="121.5716"
                   cx="257.40695"
                   id="ellipse1582"
                   style="fill:url(#color4);stroke-width:0.08143505" />
                <ellipse
                   style="fill:url(#color4);stroke-width:0.08143505"
                   id="ellipse1584"
                   cx="257.40695"
                   cy="121.5716"
                   rx="0.86094075"
                   ry="0.8665669" />
                <path
                   style="fill:url(#color4);stroke-width:0.69404805"
                   d="m 979.16992,122.59375 a 14.021889,14.021889 0 0 0 -14.02344,14.02344 14.021889,14.021889 0 0 0 14.02344,14.02148 14.021889,14.021889 0 0 0 14.02149,-14.02148 14.021889,14.021889 0 0 0 -14.02149,-14.02344 z m 62.46288,0 a 14.021889,14.021889 0 0 0 -14.0215,14.02344 14.021889,14.021889 0 0 0 14.0215,14.02148 14.021889,14.021889 0 0 0 14.0234,-14.02148 14.021889,14.021889 0 0 0 -14.0234,-14.02344 z"
                   transform="matrix(0.26458333,0,0,0.26458333,0,87)"
                   id="path1586"
                   inkscape:connector-curvature="0" />
                <ellipse
                   ry="0.8665669"
                   rx="0.86094075"
                   cy="121.5716"
                   cx="257.40695"
                   id="ellipse1588"
                   style="fill:url(#color4);stroke-width:0.08143505" />
                <ellipse
                   style="fill:url(#color4);stroke-width:0.08143505"
                   id="ellipse1590"
                   cx="273.93399"
                   cy="121.5716"
                   rx="0.86094075"
                   ry="0.8665669" />
                <path
                   inkscape:connector-curvature="0"
                   id="path1592"
                   d="m 267.75029,127.48638 a 2.1092428,1.7663067 0 0 0 -2.10925,1.7662 2.1092428,1.7663067 0 0 0 0.14039,0.63232 l 2.02216,7.28846 2.04072,-7.55446 a 13.880353,11.141319 0 0 1 -0.0321,0.003 2.1092428,1.7663067 0 0 0 0.0473,-0.36892 2.1092428,1.7663067 0 0 0 -2.10925,-1.76619 z"
                   style="fill:url(#color4);fill-opacity:1;stroke-width:0.16357349" />
                <path
                   style="fill:url(#color4);stroke-width:0.69404805"
                   d="m 1057.2891,272.29297 a 4.9076614,15.424078 0 0 0 -4.2129,7.55469 4.9076614,15.424078 0 0 0 -4.2012,-7.47266 4.9076614,15.424078 0 0 0 -3.8516,5.90039 4.9076614,15.424078 0 0 0 -3.8593,-5.90039 4.9076614,15.424078 0 0 0 -4.9082,15.42578 4.9076614,15.424078 0 0 0 4.9082,15.42383 4.9076614,15.424078 0 0 0 3.8515,-5.90039 4.9076614,15.424078 0 0 0 3.8594,5.90039 4.9076614,15.424078 0 0 0 4.2148,-7.55273 4.9076614,15.424078 0 0 0 4.1993,7.4707 4.9076614,15.424078 0 0 0 4.9082,-15.42383 4.9076614,15.424078 0 0 0 -4.9082,-15.42578 z m -76.87308,0.13476 a 4.9076614,15.424078 0 0 0 -4.21485,7.55469 4.9076614,15.424078 0 0 0 -4.19922,-7.47265 4.9076614,15.424078 0 0 0 -3.85351,5.90039 4.9076614,15.424078 0 0 0 -3.85938,-5.90039 4.9076614,15.424078 0 0 0 -4.90625,15.42578 4.9076614,15.424078 0 0 0 4.90625,15.42383 4.9076614,15.424078 0 0 0 3.85352,-5.9004 4.9076614,15.424078 0 0 0 3.85937,5.9004 4.9076614,15.424078 0 0 0 4.21485,-7.55274 4.9076614,15.424078 0 0 0 4.19922,7.4707 4.9076614,15.424078 0 0 0 4.90625,-15.42382 4.9076614,15.424078 0 0 0 -4.90625,-15.42579 z"
                   transform="matrix(0.26458333,0,0,0.26458333,0,87)"
                   id="path1594"
                   inkscape:connector-curvature="0" />
              </g>
              <ellipse
                 transform="matrix(-0.99280459,-0.11974579,-0.09418515,0.9955547,0,0)"
                 ry="16.438158"
                 rx="3.8818791"
                 cy="145.34021"
                 cx="-517.09381"
                 id="ellipse1598"
                 style="fill:url(#color4);fill-opacity:1;fill-rule:nonzero;stroke-width:0.18391685" />
            </g>
            <g
               transform="translate(16.079883,-51.164739)"
               id="g1646">
              <g
                 id="g1644">
                <g
                   inkscape:export-ydpi="96"
                   inkscape:export-xdpi="96"
                   inkscape:export-filename="E:\svg\warm\owl.png"
                   id="g1640"
                   transform="translate(211.57186,62.883296)">
                  <path
                     style="fill:url(#linearGradient1658);fill-opacity:1;stroke-width:0.97499269"
                     d="m 932.01758,66.841797 a 222.36435,175.63873 56.300663 0 0 4.76953,39.685543 75.509004,35.494583 0 0 0 -0.36719,0.77149 80.807029,55.523837 0 0 1 -0.10547,-0.1875 83.285771,132.86064 0 0 0 -8.99804,59.74219 83.285771,132.86064 0 0 0 83.28519,132.86132 83.285771,132.86064 0 0 0 83.2871,-132.86132 83.285771,132.86064 0 0 0 -7.7754,-55.69336 75.509004,35.494583 0 0 0 -1.918,-5.92188 175.63869,222.36434 34.705505 0 0 5.0547,-37.357421 173.29891,91.379958 16.2828 0 1 -44.7832,13.710938 75.509004,35.494583 0 0 0 -33.7031,-3.787109 75.509004,35.494583 0 0 0 -33.28714,3.701171 91.379962,173.29896 74.723398 0 1 -45.45898,-14.664062 z"
                     id="path1602"
                     transform="matrix(0.26458333,0,0,0.26458333,0,87)"
                     inkscape:connector-curvature="0" />
                  <ellipse
                     ry="24.803741"
                     rx="16.658188"
                     cy="139.87613"
                     cx="267.33615"
                     id="ellipse1604"
                     style="fill:#c8c4b7;stroke-width:0.28891483" />
                  <ellipse
                     ry="25.82272"
                     rx="14.447855"
                     cy="140.07353"
                     cx="267.33615"
                     id="ellipse1606"
                     style="fill:url(#linearGradient1660);fill-opacity:1;stroke-width:0.29046667" />
                  <path
                     style="fill:#28220b;stroke-width:0.69404805"
                     d="m 980.85742,90.3125 a 42.634382,44.617378 0 0 0 -42.63476,44.61719 42.634382,44.617378 0 0 0 42.63476,44.61719 42.634382,44.617378 0 0 0 29.86328,-12.79102 42.634382,44.617378 0 0 0 29.8242,12.79102 42.634382,44.617378 0 0 0 42.6348,-44.61719 42.634382,44.617378 0 0 0 -42.6348,-44.61719 42.634382,44.617378 0 0 0 -29.8633,12.79102 42.634382,44.617378 0 0 0 -29.82418,-12.79102 z"
                     id="path1608"
                     transform="matrix(0.26458333,0,0,0.26458333,0,87)"
                     inkscape:connector-curvature="0" />
                  <g
                     transform="matrix(0.6940481,0,0,0.6940481,207.31417,76.905935)"
                     id="g1614"
                     style="fill:url(#linearGradient1666);fill-opacity:1">
                    <ellipse
                       style="fill:url(#linearGradient3055);fill-opacity:1;stroke-width:0.35544509"
                       id="ellipse1610"
                       cx="86.734314"
                       cy="94.59771"
                       rx="15.100729"
                       ry="30.004381" />
                    <path
                       style="fill:url(#linearGradient3057);fill-opacity:1;stroke-width:0.30948818"
                       d="M 76.856805,52.006803 A 15,15 0 0 0 61.856687,67.006839 15,15 0 0 0 72.625538,81.388308 13.985118,24.757438 0 0 0 72.420382,85.445924 13.985118,24.757438 0 0 0 86.405577,110.2035 13.985118,24.757438 0 0 0 100.39024,85.445924 13.985118,24.757438 0 0 0 100.21402,81.631185 15,15 0 0 0 111.96524,67.006839 15,15 0 0 0 96.965138,52.006803 15,15 0 0 0 86.910455,55.898022 15,15 0 0 0 76.856805,52.006803 Z"
                       id="path1612"
                       inkscape:connector-curvature="0" />
                  </g>
                  <path
                     style="fill:#28220b;stroke-width:0.18363355"
                     d="m 267.75579,118.66034 a 6.5583414,4.9843391 0 0 0 -6.55845,4.98428 6.5583414,4.9843391 0 0 0 0.37552,1.64553 6.5583414,4.9843391 0 0 1 -0.008,-0.17646 6.5583414,4.9843391 0 0 1 6.55845,-4.98428 6.5583414,4.9843391 0 0 1 6.18292,3.33875 6.5583414,4.9843391 0 0 0 -6.55019,-4.80782 z"
                     id="path1616"
                     inkscape:connector-curvature="0" />
                  <path
                     style="fill:#28220b;stroke-width:0.45917401"
                     d="m 978.18359,107.95703 a 28.854913,28.854913 0 0 0 -28.85547,28.85547 28.854913,28.854913 0 0 0 28.85547,28.85352 28.854913,28.854913 0 0 0 28.85351,-28.85352 28.854913,28.854913 0 0 0 -28.85351,-28.85547 z m 66.62891,0 a 28.854913,28.854913 0 0 0 -28.8555,28.85547 28.854913,28.854913 0 0 0 28.8555,28.85352 28.854913,28.854913 0 0 0 28.8535,-28.85352 28.854913,28.854913 0 0 0 -28.8535,-28.85547 z"
                     id="path1618"
                     transform="matrix(0.26458333,0,0,0.26458333,0,87)"
                     inkscape:connector-curvature="0" />
                  <path
                     style="fill:#cccccc;stroke-width:0.63561517"
                     d="m 977.89453,112.30078 a 23.608565,23.608565 0 0 0 -23.60937,23.60938 23.608565,23.608565 0 0 0 23.60937,23.60742 23.608565,23.608565 0 0 0 23.60747,-23.60742 23.608565,23.608565 0 0 0 -23.60747,-23.60938 z m 66.62887,0 a 23.608565,23.608565 0 0 0 -23.6093,23.60938 23.608565,23.608565 0 0 0 23.6093,23.60742 23.608565,23.608565 0 0 0 23.6075,-23.60742 23.608565,23.608565 0 0 0 -23.6075,-23.60938 z"
                     transform="matrix(0.26458333,0,0,0.26458333,0,87)"
                     id="path1620"
                     inkscape:connector-curvature="0" />
                  <path
                     style="fill:#ffffff;stroke-width:0.69404805"
                     d="m 977.75195,115.55469 a 20.331739,20.682285 0 0 0 -20.33007,20.68359 20.331739,20.682285 0 0 0 20.33007,20.68164 20.331739,20.682285 0 0 0 20.33203,-20.68164 20.331739,20.682285 0 0 0 -20.33203,-20.68359 z m 66.60545,0.70117 a 20.331739,20.682285 0 0 0 -20.332,20.68359 20.331739,20.682285 0 0 0 20.332,20.68164 20.331739,20.682285 0 0 0 20.3321,-20.68164 20.331739,20.682285 0 0 0 -20.3321,-20.68359 z"
                     transform="matrix(0.26458333,0,0,0.26458333,0,87)"
                     id="path1622"
                     inkscape:connector-curvature="0" />
                  <circle
                     r="3.7099581"
                     cy="123.14648"
                     cx="259.07181"
                     id="circle1624"
                     style="fill:#000000;stroke-width:0.18363355" />
                  <ellipse
                     ry="0.8665669"
                     rx="0.86094075"
                     cy="121.5716"
                     cx="257.40695"
                     id="ellipse1626"
                     style="fill:#ffffff;stroke-width:0.08143505" />
                  <ellipse
                     style="fill:#ffffff;stroke-width:0.08143505"
                     id="ellipse1628"
                     cx="257.40695"
                     cy="121.5716"
                     rx="0.86094075"
                     ry="0.8665669" />
                  <path
                     style="fill:#000000;stroke-width:0.69404805"
                     d="m 979.16992,122.59375 a 14.021889,14.021889 0 0 0 -14.02344,14.02344 14.021889,14.021889 0 0 0 14.02344,14.02148 14.021889,14.021889 0 0 0 14.02149,-14.02148 14.021889,14.021889 0 0 0 -14.02149,-14.02344 z m 62.46288,0 a 14.021889,14.021889 0 0 0 -14.0215,14.02344 14.021889,14.021889 0 0 0 14.0215,14.02148 14.021889,14.021889 0 0 0 14.0234,-14.02148 14.021889,14.021889 0 0 0 -14.0234,-14.02344 z"
                     transform="matrix(0.26458333,0,0,0.26458333,0,87)"
                     id="path1630"
                     inkscape:connector-curvature="0" />
                  <ellipse
                     ry="0.8665669"
                     rx="0.86094075"
                     cy="121.5716"
                     cx="257.40695"
                     id="ellipse1632"
                     style="fill:#ffffff;stroke-width:0.08143505" />
                  <ellipse
                     style="fill:#ffffff;stroke-width:0.08143505"
                     id="ellipse1634"
                     cx="273.93399"
                     cy="121.5716"
                     rx="0.86094075"
                     ry="0.8665669" />
                  <path
                     inkscape:connector-curvature="0"
                     id="path1636"
                     d="m 267.75029,127.48638 a 2.1092428,1.7663067 0 0 0 -2.10925,1.7662 2.1092428,1.7663067 0 0 0 0.14039,0.63232 l 2.02216,7.28846 2.04072,-7.55446 a 13.880353,11.141319 0 0 1 -0.0321,0.003 2.1092428,1.7663067 0 0 0 0.0473,-0.36892 2.1092428,1.7663067 0 0 0 -2.10925,-1.76619 z"
                     style="fill:url(#linearGradient1668);fill-opacity:1;stroke-width:0.16357349" />
                  <path
                     style="fill:url(#color2);stroke-width:0.69404805"
                     d="m 1057.2891,272.29297 a 4.9076614,15.424078 0 0 0 -4.2129,7.55469 4.9076614,15.424078 0 0 0 -4.2012,-7.47266 4.9076614,15.424078 0 0 0 -3.8516,5.90039 4.9076614,15.424078 0 0 0 -3.8593,-5.90039 4.9076614,15.424078 0 0 0 -4.9082,15.42578 4.9076614,15.424078 0 0 0 4.9082,15.42383 4.9076614,15.424078 0 0 0 3.8515,-5.90039 4.9076614,15.424078 0 0 0 3.8594,5.90039 4.9076614,15.424078 0 0 0 4.2148,-7.55273 4.9076614,15.424078 0 0 0 4.1993,7.4707 4.9076614,15.424078 0 0 0 4.9082,-15.42383 4.9076614,15.424078 0 0 0 -4.9082,-15.42578 z m -76.87308,0.13476 a 4.9076614,15.424078 0 0 0 -4.21485,7.55469 4.9076614,15.424078 0 0 0 -4.19922,-7.47265 4.9076614,15.424078 0 0 0 -3.85351,5.90039 4.9076614,15.424078 0 0 0 -3.85938,-5.90039 4.9076614,15.424078 0 0 0 -4.90625,15.42578 4.9076614,15.424078 0 0 0 4.90625,15.42383 4.9076614,15.424078 0 0 0 3.85352,-5.9004 4.9076614,15.424078 0 0 0 3.85937,5.9004 4.9076614,15.424078 0 0 0 4.21485,-7.55274 4.9076614,15.424078 0 0 0 4.19922,7.4707 4.9076614,15.424078 0 0 0 4.90625,-15.42382 4.9076614,15.424078 0 0 0 -4.90625,-15.42579 z"
                     transform="matrix(0.26458333,0,0,0.26458333,0,87)"
                     id="path1638"
                     inkscape:connector-curvature="0" />
                </g>
                <ellipse
                   transform="matrix(-0.99280459,-0.11974579,-0.09418515,0.9955547,0,0)"
                   ry="16.438158"
                   rx="3.8818791"
                   cy="145.34021"
                   cx="-517.09381"
                   id="ellipse1642"
                   style="fill:url(#color4);fill-opacity:1;fill-rule:nonzero;stroke-width:0.18391685" />
              </g>
            </g>
          </g>
          <g
             id="g1654"
             transform="translate(29.981443,58.25173)">
            <path
               inkscape:connector-curvature="0"
               id="path1650"
               d="m 444.40025,58.218352 a 24.177615,45.852016 74.723398 0 0 0,5.17e-4 24.177615,45.852016 74.723398 0 0 4.9997,2.184363 24.177615,45.852016 74.723398 0 1 -4.9997,-2.18488 z m -20.76616,12.375469 a 20.362663,11.968456 29.86689 0 0 -3.18326,0.27802 l -5.3e-4,10e-4 a 20.362663,11.968456 29.86689 0 0 -1.00563,0.229956 20.362663,11.968456 29.86689 0 0 -4.52323,2.58795 20.362663,11.968456 29.86689 0 0 -0.0351,0.0434 6.0535952,13.561791 69.346436 0 0 -10.14357,2.72748 6.0535952,13.561791 69.346436 0 0 -7.56957,10.419522 6.0535952,13.561791 69.346436 0 0 11.1492,0.85628 4.7917951,13.481852 71.820423 0 0 -3.34087,6.27455 4.7917951,13.481852 71.820423 0 0 12.24111,-0.13952 2.6542439,10.518892 72.401665 0 0 -1.06662,2.31252 l 0.0134,0.0114 a 2.6542439,10.518892 72.401665 0 0 9.42166,-0.6506 3.2061351,8.7082108 50.930604 0 0 0.26302,2.97346 l 0.0181,0.008 a 3.2061351,8.7082108 50.930604 0 0 3.94239,-0.58343 18.949819,10.120104 17.113824 0 0 1.03405,0.55604 18.949819,10.120104 17.113824 0 0 15.25384,3.680911 22.036027,35.152711 0 0 1 -2.94659,-17.501261 22.036027,35.152711 0 0 1 0.30385,-5.685952 20.362663,11.968456 29.86689 0 0 -3.61321,-2.86494 20.362663,11.968456 29.86689 0 0 -16.21244,-5.535066 z m 23.64919,34.518829 a 22.036027,35.152711 0 0 0 0.0517,0.10903 22.036027,35.152711 0 0 1 -0.0517,-0.10903 z m 1.35755,2.73213 a 22.036027,35.152711 0 0 0 0.11266,0.19275 22.036027,35.152711 0 0 1 -0.11266,-0.19275 z m 1.52289,2.50682 a 22.036027,35.152711 0 0 0 0.17675,0.24753 22.036027,35.152711 0 0 1 -0.17675,-0.24753 z m 1.66399,2.24431 a 22.036027,35.152711 0 0 0 0.28163,0.32194 22.036027,35.152711 0 0 1 -0.28163,-0.32194 z m 1.79369,1.97094 a 22.036027,35.152711 0 0 0 0.39894,0.36483 22.036027,35.152711 0 0 1 -0.39894,-0.36483 z m 1.90892,1.68 a 22.036027,35.152711 0 0 0 0.51263,0.36587 22.036027,35.152711 0 0 1 -0.51263,-0.36587 z m 2.00144,1.36891 a 22.036027,35.152711 0 0 0 0.64752,0.34313 22.036027,35.152711 0 0 1 -0.64752,-0.34313 z m 2.07171,1.04541 a 22.036027,35.152711 0 0 0 0.79529,0.28474 22.036027,35.152711 0 0 1 -0.79529,-0.28474 z m 2.12958,0.7152 a 22.036027,35.152711 0 0 0 0.93639,0.18139 22.036027,35.152711 0 0 1 -0.93639,-0.18139 z m 2.21745,0.38603 a 22.036027,35.152711 0 0 0 1.24023,0.0703 22.036027,35.152711 0 0 1 -1.24023,-0.0703 z"
               style="fill:url(#color4);fill-opacity:1;fill-rule:evenodd;stroke-width:0.19783212" />
            <path
               transform="matrix(1.0537416,0,0,1.0537416,-21.024854,8.1660372)"
               style="opacity:0.2;fill:url(#color4);fill-opacity:1;fill-rule:evenodd;stroke-width:0.19783212;filter:url(#filter2588)"
               d="m 442.38273,45.928421 a 24.177615,45.852016 74.723398 0 0 0,5.17e-4 24.177615,45.852016 74.723398 0 0 4.9997,2.184363 24.177615,45.852016 74.723398 0 1 -4.9997,-2.18488 z M 421.61657,58.30389 a 20.362663,11.968456 29.86689 0 0 -3.18326,0.27802 l -5.3e-4,10e-4 a 20.362663,11.968456 29.86689 0 0 -1.00563,0.229956 20.362663,11.968456 29.86689 0 0 -4.52323,2.58795 20.362663,11.968456 29.86689 0 0 -0.0351,0.0434 6.0535952,13.561791 69.346436 0 0 -10.14357,2.72748 6.0535952,13.561791 69.346436 0 0 -7.56957,10.419522 6.0535952,13.561791 69.346436 0 0 11.1492,0.85628 4.7917951,13.481852 71.820423 0 0 -3.34087,6.27455 4.7917951,13.481852 71.820423 0 0 12.24111,-0.13952 2.6542439,10.518892 72.401665 0 0 -1.06662,2.31252 l 0.0134,0.0114 a 2.6542439,10.518892 72.401665 0 0 9.42166,-0.6506 3.2061351,8.7082108 50.930604 0 0 0.26302,2.97346 l 0.0181,0.008 a 3.2061351,8.7082108 50.930604 0 0 3.94239,-0.58343 18.949819,10.120104 17.113824 0 0 1.03405,0.55604 18.949819,10.120104 17.113824 0 0 15.25384,3.68091 22.036027,35.152711 0 0 1 -2.94659,-17.50126 22.036027,35.152711 0 0 1 0.30385,-5.685952 20.362663,11.968456 29.86689 0 0 -3.61321,-2.86494 20.362663,11.968456 29.86689 0 0 -16.21244,-5.535066 z m 23.64919,34.518828 a 22.036027,35.152711 0 0 0 0.0517,0.10903 22.036027,35.152711 0 0 1 -0.0517,-0.10903 z m 1.35755,2.73213 a 22.036027,35.152711 0 0 0 0.11266,0.19275 22.036027,35.152711 0 0 1 -0.11266,-0.19275 z m 1.52289,2.50682 a 22.036027,35.152711 0 0 0 0.17675,0.24753 22.036027,35.152711 0 0 1 -0.17675,-0.24753 z m 1.66399,2.244312 a 22.036027,35.152711 0 0 0 0.28163,0.32194 22.036027,35.152711 0 0 1 -0.28163,-0.32194 z m 1.79369,1.97094 a 22.036027,35.152711 0 0 0 0.39894,0.36483 22.036027,35.152711 0 0 1 -0.39894,-0.36483 z m 1.90892,1.68 a 22.036027,35.152711 0 0 0 0.51263,0.36587 22.036027,35.152711 0 0 1 -0.51263,-0.36587 z m 2.00144,1.36891 a 22.036027,35.152711 0 0 0 0.64752,0.34313 22.036027,35.152711 0 0 1 -0.64752,-0.34313 z m 2.07171,1.04541 a 22.036027,35.152711 0 0 0 0.79529,0.28474 22.036027,35.152711 0 0 1 -0.79529,-0.28474 z m 2.12958,0.7152 a 22.036027,35.152711 0 0 0 0.93639,0.18139 22.036027,35.152711 0 0 1 -0.93639,-0.18139 z m 2.21745,0.38603 a 22.036027,35.152711 0 0 0 1.24023,0.0703 22.036027,35.152711 0 0 1 -1.24023,-0.0703 z"
               id="path1652"
               inkscape:connector-curvature="0" />
          </g>
        </g>
        <g
           id="g1945"
           transform="matrix(0.93933852,-0.03911873,0.04348996,0.84492439,37.128086,88.713482)">
          <g
             transform="matrix(1.0828898,0,0,1.0828898,-51.698216,-20.390912)"
             style="opacity:0.2;fill:url(#color4);filter:url(#filter1874)"
             id="g1864">
            <path
               style="fill:url(#color4);fill-opacity:1;fill-rule:nonzero;stroke-width:0.3565293"
               d="m 644.26016,251.82396 a 11.798767,5.4100737 14.842951 0 0 -0.73541,1.13442 11.798767,5.4100737 14.842951 0 0 9.71803,8.3014 11.798767,5.4100737 14.842951 0 0 13.02126,-2.01402 11.798767,5.4100737 14.842951 0 0 -0.12238,-1.93075 11.798767,5.4100737 14.842951 0 1 -12.28585,0.87904 11.798767,5.4100737 14.842951 0 1 -9.59565,-6.37009 z"
               id="path1856"
               inkscape:connector-curvature="0" />
            <path
               style="fill:url(#color4);fill-opacity:1;fill-rule:nonzero;stroke-width:0.95448506"
               d="m 676.60161,256.96067 c 0.13024,0.0171 0.16835,-0.0415 0.0855,-0.13133 l -8.58361,-9.31064 a 15.634428,10.933882 0 0 1 -9.99018,2.53596 15.634428,10.933882 0 0 1 -15.52873,-9.7767 l -6.28179,-0.8226 c -0.13024,-0.0171 -0.1679,0.0414 -0.0849,0.13132 l 12.52222,13.58289 c 0.0621,0.0674 0.17402,0.13259 0.28109,0.16821 0.0357,0.0119 0.0708,0.0208 0.10338,0.0251 z"
               id="path1858"
               inkscape:connector-curvature="0" />
            <g
               style="fill:url(#color4)"
               transform="matrix(1.0813994,0,0,1.0813994,569.02403,340.0725)"
               id="g1862">
              <path
                 inkscape:connector-curvature="0"
                 id="path1860"
                 d="m 88.284045,-90.13199 c -0.033,-0.011 -0.0655,-0.01894 -0.0956,-0.02291 l -25.408566,-3.327186 c -0.120432,-0.01578 -0.155715,0.0385 -0.0791,0.1216 l 11.579817,12.560026 c 0.07662,0.0831 0.235502,0.162779 0.355936,0.178546 l 25.408448,3.327577 c 0.12043,0.01578 0.15571,-0.0385 0.079,-0.121616 L 88.544375,-89.976347 c -0.0574,-0.06232 -0.16133,-0.122739 -0.26034,-0.155674 z m -17.849764,5.997006 a 10.982176,6.0033839 16.272237 0 0 -1.254512,1.806235 10.982176,6.0033839 16.272237 0 0 8.860188,8.840125 10.982176,6.0033839 16.272237 0 0 12.223988,-2.685769 10.982176,6.0033839 16.272237 0 0 -0.0042,-1.916562 l -15.976311,-2.092142 c -0.12942,-0.01694 -0.299913,-0.102377 -0.38225,-0.191675 z"
                 style="fill:url(#color4);fill-opacity:1;fill-rule:nonzero;stroke-width:0.88263881" />
            </g>
          </g>
          <g
             transform="translate(2.7403273,0.37797619)"
             id="g1854">
            <path
               inkscape:connector-curvature="0"
               id="path1837"
               d="m 644.26016,251.82396 a 11.798767,5.4100737 14.842951 0 0 -0.73541,1.13442 11.798767,5.4100737 14.842951 0 0 9.71803,8.3014 11.798767,5.4100737 14.842951 0 0 13.02126,-2.01402 11.798767,5.4100737 14.842951 0 0 -0.12238,-1.93075 11.798767,5.4100737 14.842951 0 1 -12.28585,0.87904 11.798767,5.4100737 14.842951 0 1 -9.59565,-6.37009 z"
               style="fill:url(#color2);fill-opacity:1;fill-rule:nonzero;stroke-width:0.3565293" />
            <path
               inkscape:connector-curvature="0"
               id="path1839"
               d="m 676.60161,256.96067 c 0.13024,0.0171 0.16835,-0.0415 0.0855,-0.13133 l -8.58361,-9.31064 a 15.634428,10.933882 0 0 1 -9.99018,2.53596 15.634428,10.933882 0 0 1 -15.52873,-9.7767 l -6.28179,-0.8226 c -0.13024,-0.0171 -0.1679,0.0414 -0.0849,0.13132 l 12.52222,13.58289 c 0.0621,0.0674 0.17402,0.13259 0.28109,0.16821 0.0357,0.0119 0.0708,0.0208 0.10338,0.0251 z"
               style="fill:url(#color2);fill-opacity:1;fill-rule:nonzero;stroke-width:0.95448506" />
            <g
               id="g1843"
               transform="matrix(1.0813994,0,0,1.0813994,569.02403,340.0725)">
              <path
                 style="fill:#000000;fill-opacity:1;fill-rule:nonzero;stroke-width:0.88263881"
                 d="m 88.284045,-90.13199 c -0.033,-0.011 -0.0655,-0.01894 -0.0956,-0.02291 l -25.408566,-3.327186 c -0.120432,-0.01578 -0.155715,0.0385 -0.0791,0.1216 l 11.579817,12.560026 c 0.07662,0.0831 0.235502,0.162779 0.355936,0.178546 l 25.408448,3.327577 c 0.12043,0.01578 0.15571,-0.0385 0.079,-0.121616 L 88.544375,-89.976347 c -0.0574,-0.06232 -0.16133,-0.122739 -0.26034,-0.155674 z m -17.849764,5.997006 a 10.982176,6.0033839 16.272237 0 0 -1.254512,1.806235 10.982176,6.0033839 16.272237 0 0 8.860188,8.840125 10.982176,6.0033839 16.272237 0 0 12.223988,-2.685769 10.982176,6.0033839 16.272237 0 0 -0.0042,-1.916562 l -15.976311,-2.092142 c -0.12942,-0.01694 -0.299913,-0.102377 -0.38225,-0.191675 z"
                 id="path1841"
                 inkscape:connector-curvature="0" />
            </g>
          </g>
          <g
             id="g1882"
             transform="translate(31.081309,3.7495929)">
            <path
               transform="matrix(0.69544522,0,0,0.85752188,198.03719,37.905382)"
               inkscape:connector-curvature="0"
               id="path1878"
               d="m 617.69308,239.62201 -0.37833,0.21339 c 1.0417,0.138 2.07836,0.30116 3.11402,0.46614 2.22761,0.34864 4.46497,0.65887 6.7038,0.95642 1.90411,0.28485 3.80855,0.57824 5.68743,0.9592 0.95483,0.19331 1.88991,0.44126 2.84416,0.63671 1.44997,0.25974 2.88123,0.58199 4.30462,0.92328 0.95733,0.18861 1.8502,0.50877 2.7263,0.8646 0.48392,0.14422 0.91579,0.35657 1.33069,0.60011 0.37876,0.23426 0.73421,0.49082 1.09751,0.74027 0.31078,0.14688 0.50099,0.37787 0.71828,0.59873 0.22362,0.18972 0.37981,0.41362 0.52527,0.645 0.1567,0.26692 0.25996,0.54692 0.32457,0.83696 0.0344,0.35574 0.11629,0.70631 0.17166,1.06 0.0685,0.42122 0.13558,0.84169 0.17424,1.26583 0.0357,0.45267 0.0405,0.90629 0.0436,1.35972 -0.007,0.51918 -0.01,1.0357 0.0658,1.55172 0.13161,0.70134 0.18952,1.40904 0.22207,2.11727 0.0257,0.74304 0.0275,1.48653 0.0272,2.22982 0.008,0.45097 0.0956,0.89235 0.19644,1.33419 0.0667,0.39539 0.10759,0.79236 0.19901,1.18501 0.0416,0.21164 0.10602,0.41882 0.17254,0.62565 a 0.94354644,1.4371783 0 0 0 -0.81653,1.42189 0.94354644,1.4371783 0 0 0 0.45438,1.22714 0.94354644,1.4371783 0 0 0 -0.0248,0.31972 0.94354644,1.4371783 0 0 0 0.1,0.63945 0.94354644,1.4371783 0 0 0 -0.56881,1.31761 0.94354644,1.4371783 0 0 0 0.4595,1.232 0.94354644,1.4371783 0 0 0 -0.0692,0.53586 0.94354644,1.4371783 0 0 0 0.94378,1.43708 0.94354644,1.4371783 0 0 0 0.45182,-0.17679 0.94354644,1.4371783 0 0 0 0.36811,0.11399 0.94354644,1.4371783 0 0 0 0.54578,-0.26588 0.94354644,1.4371783 0 0 0 0.11858,0.0127 0.94354644,1.4371783 0 0 0 0.45182,-0.17679 0.94354644,1.4371783 0 0 0 0.36811,0.11399 0.94354644,1.4371783 0 0 0 0.94292,-1.43706 0.94354644,1.4371783 0 0 0 -0.4595,-1.23128 0.94354644,1.4371783 0 0 0 0.0683,-0.53657 0.94354644,1.4371783 0 0 0 -0.94292,-1.43776 0.94354644,1.4371783 0 0 0 -0.0828,0.007 0.94354644,1.4371783 0 0 0 0.0122,-0.2106 0.94354644,1.4371783 0 0 0 -0.4544,-1.22783 0.94354644,1.4371783 0 0 0 0.0248,-0.31905 0.94354644,1.4371783 0 0 0 -0.94288,-1.43775 0.94354644,1.4371783 0 0 0 -0.45184,0.17748 c -0.095,-0.29857 -0.20155,-0.59413 -0.26221,-0.89912 -0.0899,-0.39296 -0.12793,-0.79049 -0.19729,-1.18571 -0.10178,-0.43917 -0.18903,-0.87815 -0.19728,-1.32658 -9.3e-4,-0.74303 -0.008,-1.48634 -0.0324,-2.22914 -0.0285,-0.70979 -0.0908,-1.41841 -0.21951,-2.12144 -0.0723,-0.5153 -0.0656,-1.03082 -0.0607,-1.54893 -0.004,-0.4542 -0.008,-0.9084 -0.0453,-1.36181 -0.0393,-0.42485 -0.10589,-0.84635 -0.17337,-1.26856 -0.0566,-0.35419 -0.13709,-0.70584 -0.17252,-1.0621 -0.0665,-0.29334 -0.1702,-0.57677 -0.32967,-0.84662 -0.14658,-0.23367 -0.30462,-0.45997 -0.52954,-0.65191 -0.2195,-0.22253 -0.41151,-0.45664 -0.72597,-0.60355 -0.36447,-0.24968 -0.7195,-0.50749 -1.09839,-0.74305 -0.41665,-0.2459 -0.8503,-0.46191 -1.33922,-0.60355 -0.88169,-0.35442 -1.77708,-0.67843 -2.73995,-0.86459 -1.42434,-0.3383 -2.85451,-0.66434 -4.30378,-0.92605 -0.95311,-0.19901 -1.88763,-0.44785 -2.84415,-0.63602 -1.88683,-0.37686 -3.79914,-0.66532 -5.70964,-0.95092 -2.23306,-0.29759 -4.46371,-0.61164 -6.68414,-0.96609 -1.03185,-0.1657 -2.06441,-0.32935 -3.10124,-0.47306 z"
               style="opacity:0.2;fill:url(#color2);fill-opacity:1;fill-rule:nonzero;stroke-width:0.39321163;filter:url(#filter1821)" />
            <path
               style="fill:url(#color2);fill-opacity:1;fill-rule:nonzero;stroke-width:0.28612024"
               d="m 628.62581,244.11266 -0.24755,0.17268 c 0.68158,0.11162 1.35986,0.24371 2.03748,0.37721 1.45751,0.28213 2.92139,0.53317 4.38625,0.77397 1.24584,0.2305 2.4919,0.46793 3.72124,0.77622 0.62473,0.15642 1.23655,0.35708 1.8609,0.51524 0.94871,0.21019 1.88518,0.47097 2.81649,0.74715 0.62637,0.15262 1.21057,0.4117 1.78379,0.69966 0.31662,0.11672 0.59919,0.28854 0.87066,0.48562 0.24782,0.18957 0.48039,0.39719 0.71809,0.59906 0.20334,0.11886 0.3278,0.30579 0.46997,0.4845 0.14631,0.15353 0.2485,0.33472 0.34368,0.52195 0.10252,0.216 0.17008,0.44261 0.21236,0.6773 0.0225,0.28788 0.0761,0.57158 0.11232,0.8578 0.0449,0.34086 0.0887,0.68111 0.114,1.02434 0.0234,0.36632 0.0265,0.7334 0.0285,1.10033 -0.004,0.42014 -0.006,0.83813 0.043,1.25569 0.0861,0.56757 0.124,1.14025 0.1453,1.71337 0.0169,0.6013 0.0179,1.20296 0.0178,1.80445 0.005,0.36494 0.0626,0.72211 0.12853,1.07966 0.0437,0.31996 0.0704,0.64121 0.13021,0.95895 0.0272,0.17126 0.0693,0.33893 0.11289,0.5063 a 0.61735489,1.1630102 0 0 0 -0.53425,1.15063 0.61735489,1.1630102 0 0 0 0.2973,0.99304 0.61735489,1.1630102 0 0 0 -0.0162,0.25873 0.61735489,1.1630102 0 0 0 0.0654,0.51748 0.61735489,1.1630102 0 0 0 -0.37217,1.06624 0.61735489,1.1630102 0 0 0 0.30065,0.99696 0.61735489,1.1630102 0 0 0 -0.0453,0.43365 0.61735489,1.1630102 0 0 0 0.6175,1.16292 0.61735489,1.1630102 0 0 0 0.29562,-0.14306 0.61735489,1.1630102 0 0 0 0.24086,0.0922 0.61735489,1.1630102 0 0 0 0.35709,-0.21515 0.61735489,1.1630102 0 0 0 0.0776,0.0106 0.61735489,1.1630102 0 0 0 0.29562,-0.14306 0.61735489,1.1630102 0 0 0 0.24085,0.0922 0.61735489,1.1630102 0 0 0 0.61695,-1.16292 0.61735489,1.1630102 0 0 0 -0.30065,-0.99639 0.61735489,1.1630102 0 0 0 0.0447,-0.43421 0.61735489,1.1630102 0 0 0 -0.61694,-1.16349 0.61735489,1.1630102 0 0 0 -0.0542,0.006 0.61735489,1.1630102 0 0 0 0.008,-0.17044 0.61735489,1.1630102 0 0 0 -0.2973,-0.9936 0.61735489,1.1630102 0 0 0 0.0162,-0.25818 0.61735489,1.1630102 0 0 0 -0.61693,-1.16348 0.61735489,1.1630102 0 0 0 -0.29563,0.14362 c -0.0622,-0.2416 -0.13187,-0.48079 -0.17156,-0.7276 -0.0588,-0.31799 -0.0837,-0.63969 -0.12909,-0.95951 -0.0666,-0.35538 -0.12368,-0.71062 -0.12908,-1.07351 -0.001,-0.60128 -0.005,-1.20279 -0.0212,-1.8039 -0.0187,-0.57438 -0.0594,-1.1478 -0.14362,-1.71672 -0.0473,-0.417 -0.0429,-0.83417 -0.0397,-1.25345 -0.002,-0.36756 -0.005,-0.7351 -0.0296,-1.10201 -0.0257,-0.34382 -0.0693,-0.68491 -0.11344,-1.02657 -0.037,-0.28661 -0.0897,-0.57117 -0.11288,-0.85948 -0.0435,-0.23738 -0.11136,-0.46675 -0.21571,-0.68512 -0.0959,-0.18909 -0.1993,-0.37221 -0.34647,-0.52753 -0.14361,-0.18008 -0.26924,-0.36954 -0.475,-0.48842 -0.23846,-0.20205 -0.47076,-0.41068 -0.71866,-0.6013 -0.27261,-0.199 -0.55634,-0.37379 -0.87625,-0.48841 -0.57687,-0.2868 -1.16272,-0.54901 -1.79272,-0.69966 -0.93193,-0.27375 -1.86768,-0.5376 -2.81593,-0.74939 -0.62361,-0.16103 -1.23506,-0.36242 -1.86091,-0.51468 -1.23453,-0.30497 -2.48574,-0.5384 -3.73576,-0.76951 -1.46108,-0.24084 -2.92058,-0.49496 -4.37339,-0.7818 -0.67512,-0.13408 -1.35072,-0.26652 -2.02911,-0.3828 z"
               id="path1880"
               inkscape:connector-curvature="0" />
          </g>
        </g>
      </g>
    </g>
  </g>
</svg>
